<mxfile host="" modified="2020-08-13T05:35:40.724Z" agent="5.0 (Macintosh; Intel Mac OS X 10_15_5) AppleWebKit/537.36 (KHTML, like Gecko) Code/1.46.1 Chrome/78.0.3904.130 Electron/7.3.1 Safari/537.36" etag="8L50bSwlyvcxo5bVcf9Z" version="13.1.3">
    <diagram id="6hGFLwfOUW9BJ-s0fimq" name="Page-1">
        <mxGraphModel dx="173" dy="559" grid="1" gridSize="10" guides="1" tooltips="1" connect="0" arrows="0" fold="1" page="1" pageScale="1" pageWidth="827" pageHeight="1169" math="0" shadow="0">
            <root>
                <mxCell id="0"/>
                <mxCell id="1" parent="0"/>
                <mxCell id="5" value="&lt;b style=&quot;font-size: 20px&quot;&gt;user&lt;br&gt;&lt;/b&gt;first_name&lt;br&gt;family_name&lt;br&gt;first_name kana&lt;br&gt;family_name kana&lt;br&gt;birthday&lt;br&gt;:email&lt;br&gt;:password&lt;br&gt;nickname&lt;br&gt;birthday" style="rounded=1;whiteSpace=wrap;html=1;" parent="1" vertex="1">
                    <mxGeometry y="30" width="180" height="170" as="geometry"/>
                </mxCell>
                <mxCell id="8" value="&lt;span&gt;&lt;br&gt;&lt;br&gt;&lt;br&gt;&lt;br&gt;&lt;font style=&quot;font-size: 20px&quot;&gt;delivary_address&lt;/font&gt;&lt;br&gt;postsl_code(郵便番号&lt;br&gt;municipalities(市町村&lt;br&gt;address(番地&lt;br&gt;building_name(建物名&lt;br&gt;tell(電話番号&lt;br&gt;prefectures(都道府県&lt;br&gt;&lt;br&gt;&lt;br&gt;&lt;br&gt;&lt;br&gt;&lt;/span&gt;" style="ellipse;shape=cloud;whiteSpace=wrap;html=1;" parent="1" vertex="1">
                    <mxGeometry x="530" y="270" width="330" height="210" as="geometry"/>
                </mxCell>
                <mxCell id="19" value="&lt;div style=&quot;text-align: center&quot;&gt;&lt;b&gt;&lt;font style=&quot;font-size: 20px&quot;&gt;items&lt;/font&gt;&lt;/b&gt;&lt;/div&gt;&lt;ul&gt;&lt;li&gt;:price（値段）&lt;/li&gt;&lt;li&gt;:product name（商品名）&lt;/li&gt;&lt;li&gt;coments(コメント&lt;/li&gt;&lt;li&gt;image(写真&lt;/li&gt;&lt;li&gt;delivery_fee (配送料金&lt;/li&gt;&lt;li&gt;shipping_data(出荷日&lt;/li&gt;&lt;li&gt;ship-from(発送元&lt;/li&gt;&lt;li&gt;user_id&lt;/li&gt;&lt;li&gt;商品の状態&lt;/li&gt;&lt;li&gt;&lt;br&gt;&lt;/li&gt;&lt;/ul&gt;" style="rounded=1;whiteSpace=wrap;html=1;align=left;" parent="1" vertex="1">
                    <mxGeometry x="560" y="45" width="260" height="160" as="geometry"/>
                </mxCell>
                <mxCell id="21" value="&lt;font style=&quot;font-size: 20px&quot;&gt;item_purchases&lt;/font&gt;&lt;br&gt;item_id&lt;br&gt;user_id" style="ellipse;whiteSpace=wrap;html=1;aspect=fixed;align=center;" parent="1" vertex="1">
                    <mxGeometry x="260" y="30" width="190" height="190" as="geometry"/>
                </mxCell>
                <mxCell id="41" value="" style="fontSize=12;html=1;endArrow=ERoneToMany;" parent="1" source="19" edge="1">
                    <mxGeometry width="100" height="100" relative="1" as="geometry">
                        <mxPoint x="530" y="105" as="sourcePoint"/>
                        <mxPoint x="450" y="125" as="targetPoint"/>
                    </mxGeometry>
                </mxCell>
                <mxCell id="45" value="" style="edgeStyle=entityRelationEdgeStyle;fontSize=12;html=1;endArrow=ERoneToMany;" parent="1" edge="1">
                    <mxGeometry width="100" height="100" relative="1" as="geometry">
                        <mxPoint x="180" y="115" as="sourcePoint"/>
                        <mxPoint x="260" y="114.5" as="targetPoint"/>
                    </mxGeometry>
                </mxCell>
                <mxCell id="48" value="" style="edgeStyle=orthogonalEdgeStyle;fontSize=12;html=1;endArrow=ERmany;startArrow=ERmany;" parent="1" edge="1">
                    <mxGeometry width="100" height="100" relative="1" as="geometry">
                        <mxPoint x="110" y="205" as="sourcePoint"/>
                        <mxPoint x="610" y="215" as="targetPoint"/>
                        <Array as="points">
                            <mxPoint x="110" y="315"/>
                            <mxPoint x="610" y="315"/>
                        </Array>
                    </mxGeometry>
                </mxCell>
                <mxCell id="49" value="" style="edgeStyle=orthogonalEdgeStyle;fontSize=12;html=1;endArrow=ERone;endFill=1;exitX=0.5;exitY=1;exitDx=0;exitDy=0;entryX=0.082;entryY=0.505;entryDx=0;entryDy=0;entryPerimeter=0;" parent="1" source="21" target="8" edge="1">
                    <mxGeometry width="100" height="100" relative="1" as="geometry">
                        <mxPoint x="340" y="300" as="sourcePoint"/>
                        <mxPoint x="440" y="200" as="targetPoint"/>
                        <Array as="points">
                            <mxPoint x="355" y="411"/>
                        </Array>
                    </mxGeometry>
                </mxCell>
            </root>
        </mxGraphModel>
    </diagram>
</mxfile>